<svg version="1.2" baseProfile="tiny" id="EdgeSVG_MLDUm" x="0px" y="0px" width="126.727px" height="270px" viewBox="0 0 126.727 270" xmlns:xlink="http://www.w3.org/1999/xlink" xmlns="http://www.w3.org/2000/svg">
  <linearGradient id="SVGID_1_" gradientUnits="userSpaceOnUse" x1="0" y1="135.0005" x2="126.7271" y2="135.0005">
    <stop offset="0" style="stop-color:#000000;stop-opacity:0.5"/>
    <stop offset="0.9755" style="stop-color:#000000;stop-opacity:0.5"/>
  </linearGradient>
  <path fill="url(#SVGID_1_)" d="M126.646,182.996l0.081-0.978h-0.078V11.426h-0.308C124.404,3.965,113.595,0,106.226,0H20.502&#xD;&#xA;&#x9;&#x9;c-2.19,0-4.751,0.38-7.159,1.057c-1.761,0.381-3.41,1.005-4.852,1.827c-3.137,1.536-7,4.241-8.106,8.542H0.079l0,170.592H0&#xD;&#xA;&#x9;&#x9;l0.083,0.978c0.022,0.262,0.524,4.923,7.565,9.738v74.259H3.351V270h19.771v-3.008h-4.397h-0.1v-68.987&#xD;&#xA;&#x9;&#x9;c1.239,0.44,2.519,0.828,3.811,1.151c9.283,2.587,21.085,4.049,35.139,4.358v63.478h-3.708V270h17.364v-3.008h-3.807h-0.1v-63.445&#xD;&#xA;&#x9;&#x9;c19.038-0.279,31.972-2.572,40.753-5.536v68.981h-4.297V270h19.771v-3.008h-4.396h-0.101v-74.202&#xD;&#xA;&#x9;&#x9;C126.063,188.023,126.613,183.393,126.646,182.996z"/>
</svg>