<svg version="1.2" baseProfile="tiny" viewBox="0 0 126.727 270.0" xmlns:xlink="http://www.w3.org/1999/xlink" xmlns="http://www.w3.org/2000/svg">
<path style="fill:#ffffff;" d="M125.7474,182.3202L125.7474,14.1318C125.7474,11.8071,124.8907,9.7848,123.4955,8.0703C122.6046,6.9741,121.4944,6.0048,120.2487,5.1597C118.3149,3.8502,116.0541,2.8404,113.7704,2.1357C111.1193,1.3149,108.4416,0.9018,106.2264,0.9018L20.5019,0.9018L20.5019,0.9018C18.3856,0.9018,15.8485,1.2771,13.3139,2.0277C11.5246,2.5542,9.7364,3.2697,8.1004,4.1715C5.6812,5.5026,3.5914,7.2387,2.3128,9.3771C1.4713,10.7892,0.9809,12.3741,0.9809,14.1318L0.9809,182.3175C0.9809,182.3175,1.176,184.6287,3.8614,187.6689C4.9576,188.9109,8.549,191.6514,8.549,191.6514L8.549,267.894L4.2517,267.894L4.2517,269.0982L4.2517,269.0982L22.219,269.0982L22.219,267.894L17.7215,267.894L17.7215,196.1091C26.2426,199.1952,39.0953,201.6738,58.4744,202.0302L58.4744,267.894L54.7676,267.894L54.7676,269.0982L70.3271,269.0982L70.3271,267.894L66.4202,267.894L66.4202,202.0572C86.8055,201.825,100.1916,199.2978,108.9776,196.1199L108.9776,267.894L104.6816,267.894L104.6816,269.0955L122.6477,269.0955L122.6477,267.894L118.1514,267.894L118.1514,191.6703C118.1514,191.6703,122.4601,188.2629,123.5867,186.7968C125.5865,184.1994,125.7474,182.3202,125.7474,182.3202"/>
</svg>