<svg version="1.2" baseProfile="tiny" viewBox="0 0 121.760 198.769" xmlns:xlink="http://www.w3.org/1999/xlink" xmlns="http://www.w3.org/2000/svg">
<path style="fill:#ffffff;" d="M60.88,198.769c-16.41,0-29.963-1.458-40.284-4.334c-1.61-0.404-3.009-0.834-4.476-1.359   c-0.227-0.081-0.586-0.252-0.804-0.339l-0.008-0.968c-3.317-5.101-8.866-4.819-9.165-4.733l-0.01,1.023   c-5.117-3.719-6.059-7.213-6.135-7.65L0,10.515l0.23-0.896c0.883-3.436,4.204-5.692,6.833-6.98l0.117-0.062   c1.261-0.718,2.664-1.245,4.186-1.574l0.125-0.031C13.728,0.344,16.039,0,18.018,0h85.724c6.409,0,16.156,3.345,17.787,9.625   l0.23,0.885v169.91c-0.071,0.418-0.797,3.805-6.015,7.56v-0.944c-0.838-0.156-2.326,0.209-3.467,0.524   c-2.178,0.604-4.321,2.075-5.706,4.287v0.83C97.954,195.884,83.824,198.769,60.88,198.769z"/>
</svg>